<?xml version="1.0" standalone="no"?>
<!DOCTYPE svg PUBLIC "-//W3C//DTD SVG 20010904//EN"
 "http://www.w3.org/TR/2001/REC-SVG-20010904/DTD/svg10.dtd">
<svg version="1.0" xmlns="http://www.w3.org/2000/svg"
 viewBox="0 0 1202.000000 543.000000"
 preserveAspectRatio="xMidYMid meet">

<g transform="translate(0.000000,543.000000) scale(0.100000,-0.100000)"
fill="#000000" stroke="none">
<path d="M720 2835 l0 -1795 502 0 503 0 -55 37 c-237 158 -429 514 -525 977
-13 66 -27 146 -31 179 l-7 59 51 -26 c28 -14 76 -37 107 -51 l57 -25 -6 23
c-56 185 -120 479 -171 787 -26 158 -29 196 -18 198 22 6 152 -64 248 -133 49
-35 91 -62 93 -60 2 2 12 52 22 112 37 216 243 973 265 973 12 -1 81 -92 162
-215 81 -122 118 -185 248 -426 l111 -206 129 93 c72 51 133 93 137 94 30 2
78 -522 78 -852 0 -65 2 -118 5 -118 2 0 52 23 111 50 59 27 114 50 122 50 13
0 14 -26 9 -197 -7 -222 -23 -346 -71 -537 -56 -218 -143 -415 -247 -556 -47
-65 -146 -166 -204 -208 l-30 -21 473 -1 472 0 0 1795 0 1795 -1270 0 -1270 0
0 -1795z"/>
<path d="M3850 3770 l0 -530 275 0 275 0 0 55 0 55 -220 0 -220 0 0 475 0 475
-55 0 -55 0 0 -530z"/>
<path d="M6540 4104 l0 -197 -44 41 c-79 73 -206 78 -309 12 -86 -54 -127
-163 -127 -340 0 -177 41 -286 127 -340 103 -66 230 -61 309 12 l44 41 0 -47
0 -46 50 0 50 0 0 530 0 530 -50 0 -50 0 0 -196z m-85 -224 c19 -12 43 -41 57
-68 21 -43 23 -61 23 -192 0 -131 -2 -149 -23 -192 -38 -77 -122 -112 -209
-89 -102 28 -133 94 -133 281 0 180 26 243 117 276 49 18 124 11 168 -16z"/>
<path d="M4775 4004 c-52 -7 -155 -36 -161 -45 -3 -5 1 -27 7 -49 11 -35 16
-40 33 -35 231 69 353 24 355 -131 l1 -41 -127 -5 c-136 -5 -200 -23 -251 -71
-70 -65 -87 -187 -39 -270 47 -79 122 -120 222 -121 79 0 138 24 174 70 l21
27 0 -47 0 -46 56 0 55 0 -4 283 c-2 187 -8 295 -16 320 -16 51 -76 116 -126
138 -42 18 -146 30 -200 23z m233 -466 c-6 -122 -57 -189 -155 -204 -122 -18
-220 95 -169 195 30 58 91 78 240 80 l88 1 -4 -72z"/>
<path d="M5564 4001 c-40 -10 -101 -47 -114 -69 -7 -13 -9 -7 -10 26 l0 42
-55 0 -55 0 0 -380 0 -380 55 0 55 0 0 263 c0 148 5 278 10 299 28 99 179 140
261 70 59 -49 63 -70 67 -364 l4 -268 49 0 49 0 0 268 c0 303 -6 340 -65 409
-58 68 -168 105 -251 84z"/>
<path d="M7012 4000 c-130 -27 -204 -133 -173 -248 23 -85 88 -133 235 -172
100 -27 132 -43 151 -80 52 -100 -41 -181 -190 -165 -33 3 -83 14 -111 24
l-52 17 -21 -43 c-12 -24 -21 -45 -21 -47 0 -2 35 -13 78 -26 54 -17 103 -24
167 -24 80 -1 97 3 148 28 191 93 156 327 -58 393 -39 12 -90 27 -114 33 -134
35 -150 174 -25 209 52 14 78 14 149 -5 33 -8 69 -17 80 -20 16 -4 23 2 35 33
8 21 16 41 18 45 5 11 -119 46 -188 51 -36 3 -84 2 -108 -3z"/>
<path d="M7733 4000 c-101 -21 -181 -93 -211 -190 -25 -81 -24 -304 2 -383 25
-75 80 -138 148 -167 72 -32 189 -32 268 -1 83 32 85 33 66 67 -30 57 -29 56
-82 32 -71 -32 -175 -31 -228 1 -66 41 -81 89 -81 261 0 172 15 220 81 261 51
31 157 33 225 2 l45 -20 22 40 c12 22 19 43 17 48 -10 16 -113 48 -171 53 -33
3 -78 1 -101 -4z"/>
<path d="M8375 4004 c-52 -7 -155 -36 -161 -45 -3 -5 1 -27 7 -49 11 -35 16
-40 33 -35 231 69 353 24 355 -131 l1 -41 -127 -5 c-136 -5 -200 -23 -251 -71
-70 -65 -87 -187 -39 -270 47 -79 122 -120 222 -121 79 0 138 24 174 70 l21
27 0 -47 0 -46 56 0 55 0 -4 283 c-2 187 -8 295 -16 320 -16 51 -76 116 -126
138 -42 18 -146 30 -200 23z m233 -466 c-6 -122 -57 -189 -155 -204 -122 -18
-220 95 -169 195 30 58 91 78 240 80 l88 1 -4 -72z"/>
<path d="M9175 4001 c-42 -11 -75 -29 -107 -59 l-28 -26 0 42 0 42 -55 0 -55
0 0 -525 0 -525 55 0 55 0 0 187 0 187 28 -26 c47 -45 92 -62 162 -62 36 0 83
6 104 13 55 19 119 82 147 144 22 48 24 64 24 227 0 161 -2 179 -23 226 -27
59 -82 117 -132 138 -44 18 -136 27 -175 17z m150 -121 c19 -12 43 -41 57 -68
21 -43 23 -61 23 -192 0 -131 -2 -149 -23 -192 -38 -77 -122 -112 -209 -89
-103 28 -133 92 -133 281 0 183 25 242 117 276 49 18 124 11 168 -16z"/>
<path d="M9897 4000 c-91 -23 -151 -72 -189 -155 -19 -43 -23 -70 -26 -194 -6
-217 29 -316 130 -375 91 -52 253 -55 368 -5 l49 21 -21 42 c-11 22 -21 42
-22 43 -1 2 -27 -7 -57 -19 -69 -27 -199 -30 -244 -6 -62 34 -87 80 -101 186
l-7 52 243 0 243 0 -6 98 c-7 111 -19 152 -63 215 -55 77 -193 122 -297 97z
m136 -104 c21 -8 48 -22 59 -33 31 -27 58 -92 58 -141 l0 -42 -182 2 -183 3 3
45 c9 135 120 210 245 166z"/>
<path d="M6251 3069 c-95 -18 -146 -91 -158 -223 l-6 -76 -58 0 -59 0 0 -50 0
-50 60 0 60 0 0 -330 0 -330 55 0 55 0 0 330 0 330 85 0 85 0 0 50 0 50 -86 0
-86 0 4 75 c3 65 7 78 30 101 27 28 75 35 130 21 25 -7 28 -4 37 30 18 65 23
61 -84 77 -11 2 -40 0 -64 -5z"/>
<path d="M3850 2540 l0 -530 55 0 55 0 0 190 0 190 108 0 c209 0 316 54 381
190 35 74 37 219 4 291 -67 148 -193 199 -490 199 l-113 0 0 -530z m390 401
c177 -92 166 -371 -17 -432 -21 -7 -87 -13 -148 -13 l-110 -1 -3 234 -2 234
127 -5 c76 -3 138 -10 153 -17z"/>
<path d="M10570 2540 l0 -530 50 0 50 0 0 530 0 530 -50 0 -50 0 0 -530z"/>
<path d="M1833 3053 c-20 -7 -17 -49 32 -468 25 -213 44 -390 41 -392 -2 -2
-48 74 -101 169 -54 95 -105 181 -113 191 -20 23 -45 22 -67 -3 -23 -26 -31
-8 163 -351 l150 -266 12 -134 c6 -74 15 -174 20 -223 5 -50 8 -92 5 -94 -2
-2 -56 75 -119 172 -107 163 -118 176 -145 176 -32 0 -58 -30 -45 -53 4 -6 79
-124 167 -260 l160 -248 4 -252 c2 -139 6 -262 9 -274 8 -41 75 -38 88 5 8 24
-10 566 -24 747 l-11 140 146 280 c107 205 145 285 140 302 -7 28 -51 42 -70
22 -8 -8 -60 -102 -116 -209 -55 -107 -104 -199 -109 -203 -4 -5 -11 22 -14
60 -4 37 -18 171 -32 296 l-25 228 97 175 c75 136 95 179 90 199 -6 25 -45 43
-65 31 -6 -4 -38 -58 -73 -121 -34 -63 -64 -112 -66 -110 -4 4 -52 396 -52
427 0 35 -41 56 -77 41z"/>
<path d="M7993 3014 c-20 -20 -24 -31 -19 -57 8 -39 30 -57 70 -57 39 0 52 9
65 43 29 75 -58 129 -116 71z"/>
<path d="M4908 2765 c-27 -9 -64 -31 -83 -51 l-35 -35 0 46 0 45 -55 0 -55 0
0 -380 0 -380 54 0 55 0 3 268 c3 263 3 268 28 311 35 64 79 86 163 85 l67 0
12 38 c7 24 8 42 2 48 -18 17 -108 20 -156 5z"/>
<path d="M5439 2767 c-104 -23 -176 -95 -204 -203 -20 -77 -20 -271 0 -348 30
-115 108 -186 223 -205 118 -20 214 10 282 86 61 70 75 123 75 293 0 182 -14
231 -89 305 -72 71 -174 97 -287 72z m180 -115 c22 -11 46 -36 61 -63 24 -42
25 -52 25 -199 0 -140 -2 -159 -22 -196 -27 -50 -59 -72 -126 -86 -101 -21
-192 31 -217 121 -14 54 -15 267 0 321 30 112 164 161 279 102z"/>
<path d="M6761 2765 c-92 -26 -155 -88 -184 -180 -36 -115 -29 -325 13 -423
45 -104 134 -156 270 -156 83 0 221 31 234 53 5 7 -18 77 -28 88 -1 2 -27 -7
-57 -19 -77 -30 -199 -31 -254 -2 -50 26 -83 87 -91 172 l-7 62 243 0 243 0
-8 91 c-3 50 -13 113 -21 141 -18 60 -78 129 -137 157 -58 28 -149 34 -216 16z
m141 -95 c75 -21 128 -98 128 -187 l0 -33 -185 0 -185 0 0 26 c0 142 110 230
242 194z"/>
<path d="M7470 2770 c-177 -37 -239 -225 -113 -341 40 -38 79 -55 179 -80 75
-19 95 -28 128 -61 36 -35 38 -41 33 -81 -14 -100 -150 -134 -315 -78 l-53 18
-19 -38 c-11 -21 -20 -42 -20 -47 0 -14 90 -41 171 -52 157 -22 273 21 324
120 13 24 16 51 13 101 -3 58 -8 74 -34 106 -40 50 -90 77 -189 104 -141 38
-177 65 -177 136 0 93 126 128 275 77 54 -18 58 -16 80 38 l16 38 -62 19 c-78
24 -178 33 -237 21z"/>
<path d="M8525 2770 c-88 -19 -147 -60 -190 -134 -61 -106 -61 -386 1 -493 67
-116 210 -165 357 -124 64 18 137 85 168 153 22 49 24 66 24 218 0 152 -2 169
-24 218 -55 122 -199 191 -336 162z m130 -101 c50 -14 100 -64 114 -114 6 -22
11 -96 11 -165 0 -147 -11 -193 -54 -236 -61 -61 -181 -68 -255 -15 -56 40
-66 79 -66 251 0 140 2 159 22 196 41 77 131 110 228 83z"/>
<path d="M9301 2765 c-24 -7 -59 -28 -77 -46 l-34 -33 0 42 0 42 -50 0 -50 0
0 -380 0 -380 49 0 50 0 3 273 c3 241 5 276 22 309 53 108 229 113 291 8 19
-33 20 -55 23 -312 l3 -278 55 0 56 0 -4 278 c-5 300 -8 325 -64 397 -53 70
-185 109 -273 80z"/>
<path d="M10020 2774 c-57 -9 -136 -27 -157 -35 -22 -8 -22 -9 -6 -54 11 -33
19 -45 30 -41 49 19 186 38 227 32 66 -10 111 -52 125 -117 20 -92 27 -86
-116 -91 -145 -6 -199 -21 -252 -71 -66 -63 -89 -164 -55 -245 62 -150 273
-198 390 -90 l44 41 0 -47 0 -46 50 0 50 0 0 273 c0 303 -7 350 -60 411 -17
18 -51 43 -77 54 -48 21 -146 34 -193 26z m230 -434 c0 -79 -21 -143 -59 -182
-88 -87 -237 -68 -276 37 -14 36 -15 50 -5 79 14 45 60 83 108 91 20 4 42 8
47 10 6 2 49 4 98 4 l87 1 0 -40z"/>
<path d="M11040 2770 c-177 -37 -239 -225 -113 -341 40 -38 79 -55 179 -80 75
-19 95 -28 128 -61 36 -35 38 -41 33 -81 -14 -100 -150 -134 -315 -78 l-53 18
-19 -38 c-11 -21 -20 -42 -20 -47 0 -14 90 -41 171 -52 157 -22 273 21 324
120 13 24 16 51 13 101 -3 58 -8 74 -34 106 -40 50 -90 77 -189 104 -141 38
-177 65 -177 136 0 93 126 128 275 77 54 -18 58 -16 80 38 l16 38 -62 19 c-78
24 -178 33 -237 21z"/>
<path d="M7990 2390 l0 -380 55 0 55 0 0 380 0 380 -55 0 -55 0 0 -380z"/>
<path d="M3770 1175 c0 -131 2 -155 15 -155 12 0 15 15 15 75 l0 75 70 0 70 0
0 -75 c0 -60 3 -75 15 -75 13 0 15 24 15 155 0 131 -2 155 -15 155 -12 0 -15
-14 -15 -65 l0 -65 -70 0 -70 0 0 65 c0 51 -3 65 -15 65 -13 0 -15 -24 -15
-155z"/>
<path d="M5120 1175 c0 -131 2 -155 15 -155 13 0 15 24 15 155 0 131 -2 155
-15 155 -13 0 -15 -24 -15 -155z"/>
<path d="M5657 1324 c-14 -15 -6 -34 14 -34 14 0 19 5 17 17 -3 18 -20 27 -31
17z"/>
<path d="M6501 1316 c-12 -14 -5 -26 16 -26 15 0 18 26 4 34 -5 3 -14 0 -20
-8z"/>
<path d="M7300 1175 l0 -155 85 0 c69 0 85 3 85 15 0 12 -14 15 -70 15 l-70 0
0 60 0 60 60 0 c47 0 60 3 60 15 0 12 -13 15 -61 15 l-60 0 3 53 3 52 68 3
c97 4 83 22 -18 22 l-85 0 0 -155z"/>
<path d="M6320 1275 c0 -18 -5 -25 -20 -25 -11 0 -20 -7 -20 -15 0 -8 9 -15
20 -15 18 0 20 -7 20 -84 0 -95 13 -119 59 -114 34 4 33 22 -1 26 l-28 3 0 85
c0 83 0 84 25 84 16 0 25 6 25 15 0 9 -9 15 -25 15 -20 0 -25 5 -25 25 0 16
-6 25 -15 25 -9 0 -15 -9 -15 -25z"/>
<path d="M8570 1275 c0 -18 -5 -25 -20 -25 -11 0 -20 -6 -20 -14 0 -7 9 -16
20 -19 18 -5 20 -14 20 -91 0 -76 2 -87 21 -96 23 -13 59 -10 62 5 1 5 -11 12
-28 15 l-30 5 -3 83 -3 82 31 0 c39 0 36 24 -3 28 -21 3 -27 9 -27 28 0 13 -4
24 -10 24 -5 0 -10 -11 -10 -25z"/>
<path d="M4100 1222 c-25 -26 -30 -38 -30 -81 0 -61 14 -95 47 -110 38 -18 72
-13 98 14 21 21 25 33 25 88 0 77 -17 105 -72 114 -32 5 -41 1 -68 -25z m101
-19 c8 -9 14 -39 14 -68 0 -29 -6 -59 -14 -68 -19 -24 -78 -22 -91 2 -16 31
-12 117 6 135 20 21 68 20 85 -1z"/>
<path d="M4340 1135 c0 -70 4 -115 10 -115 6 0 10 33 10 78 0 87 16 122 55
122 35 0 45 -27 45 -119 0 -65 3 -81 15 -81 12 0 15 16 15 88 0 93 8 112 45
112 37 0 45 -19 45 -112 0 -72 3 -88 15 -88 12 0 15 17 15 90 0 83 -2 93 -25
115 -30 30 -54 31 -89 4 -14 -11 -26 -16 -26 -9 0 19 -52 32 -79 20 -18 -8
-27 -8 -29 -1 -2 6 -8 11 -13 11 -5 0 -9 -52 -9 -115z"/>
<path d="M4744 1238 c-29 -14 -44 -49 -44 -104 0 -88 43 -125 126 -109 54 10
36 29 -23 26 -55 -3 -73 12 -73 58 0 19 6 21 70 21 l70 0 0 31 c0 20 -10 40
-29 60 -30 30 -60 35 -97 17z m80 -34 c9 -8 16 -24 16 -35 0 -16 -7 -19 -55
-19 -48 0 -55 3 -55 19 0 27 26 51 55 51 13 0 31 -7 39 -16z"/>
<path d="M5260 1135 c0 -70 4 -115 10 -115 6 0 10 31 10 73 0 86 15 120 54
127 16 3 31 11 34 18 5 17 -39 15 -66 -4 -20 -14 -22 -14 -22 0 0 9 -4 16 -10
16 -6 0 -10 -45 -10 -115z"/>
<path d="M5460 1135 c0 -70 4 -115 10 -115 6 0 10 31 10 73 0 86 15 120 54
127 16 3 31 11 34 18 5 17 -39 15 -66 -4 -20 -14 -22 -14 -22 0 0 9 -4 16 -10
16 -6 0 -10 -45 -10 -115z"/>
<path d="M5660 1135 c0 -70 4 -115 10 -115 6 0 10 45 10 115 0 70 -4 115 -10
115 -6 0 -10 -45 -10 -115z"/>
<path d="M5823 1240 c-32 -13 -43 -41 -43 -110 0 -51 4 -65 25 -85 25 -26 78
-34 90 -15 11 18 25 11 25 -13 0 -36 -32 -59 -77 -55 -48 4 -56 -14 -10 -26
42 -11 86 8 104 44 8 16 13 69 13 148 0 102 -2 122 -15 122 -8 0 -15 -7 -15
-16 0 -14 -2 -14 -22 0 -25 18 -42 19 -75 6z m81 -42 c21 -30 21 -112 0 -132
-20 -21 -68 -20 -85 0 -7 9 -13 40 -13 69 0 29 6 60 13 69 20 24 67 20 85 -6z"/>
<path d="M6073 1243 c-13 -2 -23 -10 -23 -17 0 -10 12 -12 47 -8 37 4 49 1 60
-13 22 -32 15 -42 -36 -49 -29 -4 -55 -14 -66 -26 -54 -60 25 -142 93 -94 20
14 22 14 22 0 0 -9 7 -16 15 -16 12 0 15 15 15 74 0 134 -29 168 -127 149z
m97 -131 c0 -48 -66 -82 -98 -50 -30 30 2 68 59 68 31 0 39 -4 39 -18z"/>
<path d="M6500 1136 c0 -98 2 -116 15 -116 13 0 15 17 13 112 -2 78 -7 113
-15 116 -10 3 -13 -24 -13 -112z"/>
<path d="M6650 1222 c-25 -26 -30 -38 -30 -81 0 -61 14 -95 47 -110 38 -18 72
-13 98 14 21 21 25 33 25 88 0 77 -17 105 -72 114 -32 5 -41 1 -68 -25z m101
-19 c8 -9 14 -39 14 -68 0 -29 -6 -59 -14 -68 -19 -24 -78 -22 -91 2 -16 31
-12 117 6 135 20 21 68 20 85 -1z"/>
<path d="M6890 1135 c0 -70 4 -115 10 -115 6 0 10 31 10 73 0 85 15 121 51
125 46 5 59 -20 59 -114 0 -68 3 -84 15 -84 12 0 15 16 15 80 0 43 -5 90 -11
104 -16 35 -62 52 -97 37 -18 -9 -28 -9 -30 -2 -2 6 -8 11 -13 11 -5 0 -9 -52
-9 -115z"/>
<path d="M7570 1245 c0 -3 14 -27 30 -53 17 -27 30 -53 30 -57 0 -4 -13 -30
-30 -57 -34 -55 -35 -58 -16 -58 7 0 24 20 37 45 13 25 26 45 29 45 3 0 16
-20 29 -45 13 -25 30 -45 37 -45 19 0 18 3 -16 58 -16 27 -30 53 -30 57 0 4
14 30 31 57 16 28 28 53 25 56 -9 8 -36 -19 -56 -57 l-18 -36 -28 48 c-16 26
-35 47 -41 47 -7 0 -13 -2 -13 -5z"/>
<path d="M7830 1095 c0 -97 4 -155 10 -155 6 0 10 23 10 51 0 45 2 50 18 44
43 -19 69 -17 98 8 27 23 29 31 29 92 0 61 -3 69 -28 91 -32 28 -63 30 -95 8
-20 -14 -22 -14 -22 0 0 9 -4 16 -10 16 -6 0 -10 -58 -10 -155z m124 103 c9
-12 16 -41 16 -63 0 -53 -23 -85 -59 -85 -40 0 -56 24 -56 85 0 29 6 59 14 68
20 25 67 21 85 -5z"/>
<path d="M8124 1238 c-29 -14 -44 -49 -44 -104 0 -88 43 -125 126 -109 54 10
36 29 -23 26 -55 -3 -73 12 -73 58 0 19 6 21 70 21 l70 0 0 31 c0 20 -10 40
-29 60 -30 30 -60 35 -97 17z m80 -34 c9 -8 16 -24 16 -35 0 -16 -7 -19 -55
-19 -48 0 -55 3 -55 19 0 27 26 51 55 51 13 0 31 -7 39 -16z"/>
<path d="M8340 1135 c0 -96 3 -115 15 -115 12 0 15 16 15 83 0 91 13 117 58
117 13 0 22 6 22 15 0 19 -30 19 -58 -1 -20 -14 -22 -14 -22 0 0 9 -7 16 -15
16 -12 0 -15 -19 -15 -115z"/>
<path d="M8763 1235 c-49 -34 -26 -92 45 -113 77 -23 61 -77 -20 -70 -34 4
-48 1 -48 -7 0 -7 10 -15 23 -19 65 -17 117 6 117 54 0 36 -20 57 -69 70 -74
20 -60 76 16 67 31 -3 43 -1 43 8 0 26 -74 33 -107 10z"/>
</g>
</svg>
