<?xml version="1.0" encoding="UTF-8" standalone="no"?>
<svg
   xmlns:dc="http://purl.org/dc/elements/1.1/"
   xmlns:cc="http://creativecommons.org/ns#"
   xmlns:rdf="http://www.w3.org/1999/02/22-rdf-syntax-ns#"
   xmlns:svg="http://www.w3.org/2000/svg"
   xmlns="http://www.w3.org/2000/svg"
   xmlns:sodipodi="http://sodipodi.sourceforge.net/DTD/sodipodi-0.dtd"
   xmlns:inkscape="http://www.inkscape.org/namespaces/inkscape"
   width="210mm"
   height="297mm"
   viewBox="0 0 210 297"
   version="1.1"
   id="svg840"
   inkscape:version="1.0.2-2 (e86c870879, 2021-01-15)"
   sodipodi:docname="Headers.svg">
  <defs
     id="defs834">
    <clipPath
       id="clip1">
      <path
         d="m 165.27734,115.84375 h 44.25 V 161 h -44.25 z m 0,0"
         id="path403" />
    </clipPath>
    <clipPath
       id="clip2">
      <path
         d="m 186,115.84375 h 3 v 51 h -3 z m 0,0"
         id="path406" />
    </clipPath>
    <clipPath
       id="clip3">
      <path
         d="m 186,132 h 23.52734 v 24 H 186 Z m 0,0"
         id="path409" />
    </clipPath>
    <clipPath
       id="clip4">
      <path
         d="M 165.27734,132 H 189 v 24 h -23.72266 z m 0,0"
         id="path412" />
    </clipPath>
  </defs>
  <sodipodi:namedview
     id="base"
     pagecolor="#ffffff"
     bordercolor="#666666"
     borderopacity="1.0"
     inkscape:pageopacity="0.0"
     inkscape:pageshadow="2"
     inkscape:zoom="0.35"
     inkscape:cx="400"
     inkscape:cy="560"
     inkscape:document-units="mm"
     inkscape:current-layer="layer1"
     inkscape:document-rotation="0"
     showgrid="false"
     inkscape:window-width="1267"
     inkscape:window-height="728"
     inkscape:window-x="78"
     inkscape:window-y="0"
     inkscape:window-maximized="0" />
  <metadata
     id="metadata837">
    <rdf:RDF>
      <cc:Work
         rdf:about="">
        <dc:format>image/svg+xml</dc:format>
        <dc:type
           rdf:resource="http://purl.org/dc/dcmitype/StillImage" />
        <dc:title></dc:title>
      </cc:Work>
    </rdf:RDF>
  </metadata>
  <g
     inkscape:label="Layer 1"
     inkscape:groupmode="layer"
     id="layer1">
    <g
       id="g832"
       transform="matrix(1.0083112,0,0,-1.0336253,-79.582334,415.99244)">
      <g
         style="fill:#282321;fill-opacity:1"
         id="g634">
        <g
           id="use632"
           transform="matrix(0.26458333,0,0,0.26458333,106.99081,203.5471)">
          <path
             style="stroke:none"
             d="m 1.734375,0 c 0,0 0,-5.582031 0,-16.75 0,0 0.554687,0 1.671875,0 0,0 0,5.078125 0,15.234375 0,0 2.3125,0 6.9375,0 0,0 0,0.507813 0,1.515625 0,0 -2.871094,0 -8.609375,0 z m 0,0"
             id="path1409" />
        </g>
      </g>
      <g
         style="fill:#282321;fill-opacity:1"
         id="g638">
        <g
           id="use636"
           transform="matrix(0.26458333,0,0,0.26458333,120.97605,203.5471)">
          <path
             style="stroke:none"
             d="m 0.25,0 c 0,0 2.394531,-5.582031 7.1875,-16.75 0,0 0.628906,0 1.890625,0 0,0 2.398437,5.585938 7.203125,16.75 0,0 -0.617188,0 -1.84375,0 0,0 -0.808594,-1.878906 -2.421875,-5.640625 0,0 -2.601563,0 -7.796875,0 0,0 -0.820312,1.882813 -2.453125,5.640625 0,0 -0.589844,0 -1.765625,0 z m 4.859375,-7.15625 c 0,0 2.164063,0 6.5,0 0,0 -1.074219,-2.5625 -3.21875,-7.6875 0,0 -1.09375,2.5625 -3.28125,7.6875 z m 0,0"
             id="path1385" />
        </g>
      </g>
      <g
         style="fill:#282321;fill-opacity:1"
         id="g642">
        <g
           id="use640"
           transform="matrix(0.26458333,0,0,0.26458333,141.25905,203.5471)">
          <path
             style="stroke:none"
             d="m 1.734375,0 c 0,0 0,-5.582031 0,-16.75 0,0 0.75,0 2.25,0 0,0 3.128906,4.632812 9.390625,13.890625 0,0 0,-4.628906 0,-13.890625 0,0 0.5625,0 1.6875,0 0,0 0,5.585938 0,16.75 0,0 -0.5625,0 -1.6875,0 0,0 -3.324219,-4.910156 -9.96875,-14.734375 0,0 0,4.914063 0,14.734375 0,0 -0.558594,0 -1.671875,0 z m 0,0"
             id="path1377" />
        </g>
      </g>
      <g
         style="fill:#282321;fill-opacity:1"
         id="g646">
        <g
           id="use644"
           transform="matrix(0.26458333,0,0,0.26458333,161.54205,203.5471)">
          <path
             style="stroke:none"
             d="m 1.734375,0 c 0,0 0,-5.582031 0,-16.75 0,0 1.3125,0 3.9375,0 1.570313,0 2.859375,0.109375 3.859375,0.328125 1,0.21875 1.90625,0.585937 2.71875,1.09375 1.1875,0.75 2.085938,1.71875 2.703125,2.90625 0.613281,1.1875 0.921875,2.554687 0.921875,4.09375 0,1.605469 -0.351562,3.023437 -1.046875,4.25 -0.6875,1.230469 -1.6875,2.203125 -3,2.921875 C 10.429688,-0.382812 8.566406,0 6.234375,0 Z M 3.40625,-1.515625 h 2.328125 c 1.53125,0 2.769531,-0.125 3.71875,-0.375 0.945313,-0.25 1.765625,-0.664063 2.453125,-1.25 0.726562,-0.625 1.285156,-1.390625 1.671875,-2.296875 0.394531,-0.90625 0.59375,-1.890625 0.59375,-2.953125 0,-1.28125 -0.28125,-2.429687 -0.84375,-3.453125 -0.5625,-1.03125 -1.351563,-1.828125 -2.359375,-2.390625 -0.617188,-0.34375 -1.335938,-0.59375 -2.15625,-0.75 -0.824219,-0.164063 -1.851562,-0.25 -3.078125,-0.25 H 3.40625 Z m 0,0"
             id="path1361" />
        </g>
      </g>
      <g
         style="fill:#282321;fill-opacity:1"
         id="g650">
        <g
           id="use648"
           transform="matrix(0.26458333,0,0,0.26458333,181.91359,203.5471)">
          <path
             style="stroke:none"
             d="m 0.5,-4.6875 c 0,0 0.597656,0 1.796875,0 0.050781,0.53125 0.140625,0.96875 0.265625,1.3125 0.125,0.335938 0.316406,0.652344 0.578125,0.953125 0.300781,0.367187 0.6875,0.652344 1.15625,0.859375 0.46875,0.210938 0.960937,0.3125 1.484375,0.3125 0.957031,0 1.75,-0.3125 2.375,-0.9375 0.625,-0.632812 0.9375,-1.429688 0.9375,-2.390625 0,-1.0625 -0.382812,-1.863281 -1.140625,-2.40625 C 7.421875,-7.347656 6.550781,-7.707031 5.34375,-8.0625 4.375,-8.375 3.691406,-8.625 3.296875,-8.8125 2.910156,-9 2.550781,-9.25 2.21875,-9.5625 c -0.375,-0.34375 -0.667969,-0.78125 -0.875,-1.3125 -0.199219,-0.53125 -0.296875,-1.085938 -0.296875,-1.671875 0,-1.3125 0.4375,-2.390625 1.3125,-3.234375 0.875,-0.84375 1.984375,-1.265625 3.328125,-1.265625 1.375,0 2.492188,0.417969 3.359375,1.25 0.863281,0.835937 1.3125,1.929687 1.34375,3.28125 h -1.75 c -0.0625,-0.90625 -0.367187,-1.628906 -0.90625,-2.171875 -0.542969,-0.550781 -1.242187,-0.828125 -2.09375,-0.828125 -0.835937,0 -1.527344,0.277344 -2.078125,0.828125 -0.542969,0.554688 -0.8125,1.25 -0.8125,2.09375 0,0.386719 0.066406,0.757812 0.203125,1.109375 0.144531,0.34375 0.335937,0.625 0.578125,0.84375 0.226562,0.199219 0.503906,0.367187 0.828125,0.5 0.332031,0.136719 0.882813,0.320313 1.65625,0.546875 0.832031,0.261719 1.46875,0.484375 1.90625,0.671875 0.445313,0.1875 0.851563,0.414063 1.21875,0.671875 0.519531,0.398438 0.925781,0.914062 1.21875,1.546875 0.289063,0.625 0.4375,1.304687 0.4375,2.03125 0,1.429687 -0.480469,2.617187 -1.4375,3.5625 -0.960937,0.9375 -2.167969,1.40625 -3.625,1.40625 -1.511719,0 -2.742187,-0.453125 -3.6875,-1.359375 C 1.097656,-1.976562 0.582031,-3.1875 0.5,-4.6875 Z m 0,0"
             id="path1333" />
        </g>
      </g>
      <g
         style="fill:#282321;fill-opacity:1"
         id="g654">
        <g
           id="use652"
           transform="matrix(0.26458333,0,0,0.26458333,196.70682,203.5471)">
          <path
             style="stroke:none"
             d="m 15.59375,-4.390625 c 0,0 0.617188,0 1.859375,0 -1.6875,3.125 -4.242187,4.6875 -7.65625,4.6875 -1.230469,0 -2.390625,-0.21875 -3.484375,-0.65625 C 5.21875,-0.804688 4.28125,-1.410156 3.5,-2.171875 2.726562,-2.941406 2.117188,-3.859375 1.671875,-4.921875 1.222656,-5.984375 1,-7.117188 1,-8.328125 c 0,-1.644531 0.375,-3.132813 1.125,-4.46875 0.75,-1.332031 1.785156,-2.375 3.109375,-3.125 1.320313,-0.75 2.800781,-1.125 4.4375,-1.125 1.738281,0 3.296875,0.417969 4.671875,1.25 1.382812,0.824219 2.398438,1.953125 3.046875,3.390625 h -1.875 C 15.179688,-12.925781 14.875,-13.332031 14.59375,-13.625 c -0.273438,-0.289062 -0.609375,-0.566406 -1.015625,-0.828125 -1.117187,-0.707031 -2.390625,-1.0625 -3.828125,-1.0625 -0.992188,0 -1.921875,0.1875 -2.796875,0.5625 -0.867187,0.367187 -1.609375,0.867187 -2.234375,1.5 -0.625,0.625 -1.121094,1.375 -1.484375,2.25 -0.355469,0.875 -0.53125,1.8125 -0.53125,2.8125 0,0.96875 0.179687,1.898437 0.546875,2.78125 0.375,0.875 0.878906,1.636719 1.515625,2.28125 0.632813,0.636719 1.382813,1.140625 2.25,1.515625 0.875,0.375 1.796875,0.5625 2.765625,0.5625 0.78125,0 1.535156,-0.125 2.265625,-0.375 0.738281,-0.25 1.394531,-0.609375 1.96875,-1.078125 0.539063,-0.445313 1.066406,-1.007813 1.578125,-1.6875 z m 0,0"
             id="path1417" />
        </g>
      </g>
      <g
         style="fill:#282321;fill-opacity:1"
         id="g658">
        <g
           id="use656"
           transform="matrix(0.26458333,0,0,0.26458333,218.65002,203.5471)">
          <path
             style="stroke:none"
             d="m 0.25,0 c 0,0 2.394531,-5.582031 7.1875,-16.75 0,0 0.628906,0 1.890625,0 0,0 2.398437,5.585938 7.203125,16.75 0,0 -0.617188,0 -1.84375,0 0,0 -0.808594,-1.878906 -2.421875,-5.640625 0,0 -2.601563,0 -7.796875,0 0,0 -0.820312,1.882813 -2.453125,5.640625 0,0 -0.589844,0 -1.765625,0 z m 4.859375,-7.15625 c 0,0 2.164063,0 6.5,0 0,0 -1.074219,-2.5625 -3.21875,-7.6875 0,0 -1.09375,2.5625 -3.28125,7.6875 z m 0,0"
             id="path1389" />
        </g>
      </g>
      <g
         style="fill:#282321;fill-opacity:1"
         id="g662">
        <g
           id="use660"
           transform="matrix(0.26458333,0,0,0.26458333,238.93303,203.5471)">
          <path
             style="stroke:none"
             d="m 1.734375,0 c 0,0 0,-5.582031 0,-16.75 0,0 1.535156,0 4.609375,0 1.082031,0 1.96875,0.07031 2.65625,0.203125 0.695312,0.136719 1.300781,0.359375 1.8125,0.671875 0.632812,0.375 1.125,0.929688 1.46875,1.65625 0.351562,0.730469 0.53125,1.578125 0.53125,2.546875 0,0.835937 -0.148438,1.585937 -0.4375,2.25 -0.292969,0.667969 -0.703125,1.199219 -1.234375,1.59375 -0.511719,0.375 -1.109375,0.648437 -1.796875,0.8125 C 8.65625,-6.859375 7.75,-6.78125 6.625,-6.78125 H 3.40625 V 0 Z M 3.40625,-8.296875 h 3.109375 c 1.5,0 2.570313,-0.191406 3.21875,-0.578125 0.4375,-0.226562 0.773437,-0.585938 1.015625,-1.078125 0.238281,-0.5 0.359375,-1.082031 0.359375,-1.75 0,-0.820313 -0.164063,-1.503906 -0.484375,-2.046875 -0.324219,-0.550781 -0.789062,-0.925781 -1.390625,-1.125 -0.730469,-0.238281 -1.882813,-0.359375 -3.453125,-0.359375 h -2.375 z m 0,0"
             id="path1353" />
        </g>
      </g>
      <g
         style="fill:#282321;fill-opacity:1"
         id="g666">
        <g
           id="use664"
           transform="matrix(0.26458333,0,0,0.26458333,255.86238,203.5471)">
          <path
             style="stroke:none"
             d="m 1.734375,0 c 0,0 0,-5.582031 0,-16.75 0,0 3.046875,0 9.140625,0 0,0 0,0.507812 0,1.515625 0,0 -2.492188,0 -7.46875,0 0,0 0,2 0,6 0,0 2.410156,0 7.234375,0 0,0 0,0.511719 0,1.53125 0,0 -2.414063,0 -7.234375,0 0,0 0,2.0625 0,6.1875 0,0 2.488281,0 7.46875,0 0,0 0,0.507813 0,1.515625 0,0 -3.046875,0 -9.140625,0 z m 0,0"
             id="path1369" />
        </g>
      </g>
      <g
         style="fill:#282321;fill-opacity:1"
         id="g670">
        <g
           id="use668"
           transform="matrix(0.26458333,0,0,0.26458333,80.084816,235.0105)">
          <path
             style="stroke:none"
             d="m 1.734375,0 c 0,0 0,-5.582031 0,-16.75 0,0 1.535156,0 4.609375,0 1.082031,0 1.96875,0.07031 2.65625,0.203125 0.695312,0.136719 1.300781,0.359375 1.8125,0.671875 0.632812,0.375 1.125,0.929688 1.46875,1.65625 0.351562,0.730469 0.53125,1.578125 0.53125,2.546875 0,0.835937 -0.148438,1.585937 -0.4375,2.25 -0.292969,0.667969 -0.703125,1.199219 -1.234375,1.59375 -0.511719,0.375 -1.109375,0.648437 -1.796875,0.8125 C 8.65625,-6.859375 7.75,-6.78125 6.625,-6.78125 H 3.40625 V 0 Z M 3.40625,-8.296875 h 3.109375 c 1.5,0 2.570313,-0.191406 3.21875,-0.578125 0.4375,-0.226562 0.773437,-0.585938 1.015625,-1.078125 0.238281,-0.5 0.359375,-1.082031 0.359375,-1.75 0,-0.820313 -0.164063,-1.503906 -0.484375,-2.046875 -0.324219,-0.550781 -0.789062,-0.925781 -1.390625,-1.125 -0.730469,-0.238281 -1.882813,-0.359375 -3.453125,-0.359375 h -2.375 z m 0,0"
             id="path1357" />
        </g>
      </g>
      <g
         style="fill:#282321;fill-opacity:1"
         id="g674">
        <g
           id="use672"
           transform="matrix(0.26458333,0,0,0.26458333,97.014183,235.0105)">
          <path
             style="stroke:none"
             d="m 8.140625,-6.25 c 0,0 1.5625,2.085938 4.6875,6.25 0,0 -0.695313,0 -2.078125,0 0,0 -1.882812,-2.53125 -5.640625,-7.59375 1.789063,0 3.070313,-0.109375 3.84375,-0.328125 C 10.566406,-8.398438 11.375,-9.5625 11.375,-11.40625 c 0,-0.757812 -0.152344,-1.414062 -0.453125,-1.96875 -0.304687,-0.5625 -0.742187,-0.976562 -1.3125,-1.25 C 8.753906,-15.03125 7.46875,-15.234375 5.75,-15.234375 H 3.40625 c 0,0 0,5.078125 0,15.234375 0,0 -0.558594,0 -1.671875,0 0,0 0,-5.582031 0,-16.75 0,0 1.378906,0 4.140625,0 2.175781,0 3.78125,0.289062 4.8125,0.859375 0.78125,0.460937 1.375,1.074219 1.78125,1.84375 0.40625,0.761719 0.609375,1.652344 0.609375,2.671875 0,1.492188 -0.421875,2.671875 -1.265625,3.546875 -0.84375,0.875 -2.070312,1.402344 -3.671875,1.578125 z m 0,0"
             id="path1365" />
        </g>
      </g>
      <g
         style="fill:#282321;fill-opacity:1"
         id="g678">
        <g
           id="use676"
           transform="matrix(0.26458333,0,0,0.26458333,114.28666,235.0105)">
          <path
             style="stroke:none"
             d="m 9.96875,-17.046875 c 1.164062,0 2.285156,0.234375 3.359375,0.703125 1.070313,0.460938 2,1.078125 2.78125,1.859375 0.789063,0.773437 1.421875,1.695313 1.890625,2.765625 0.46875,1.074219 0.703125,2.1875 0.703125,3.34375 0,1.167969 -0.234375,2.289062 -0.703125,3.359375 -0.46875,1.074219 -1.101562,2 -1.890625,2.78125 -0.792969,0.773437 -1.734375,1.386719 -2.828125,1.84375 -1.09375,0.4570312 -2.234375,0.6875 -3.421875,0.6875 -1.1875,0 -2.328125,-0.2304688 -3.421875,-0.6875 C 5.34375,-0.847656 4.394531,-1.46875 3.59375,-2.25 2.800781,-3.03125 2.171875,-3.953125 1.703125,-5.015625 1.234375,-6.085938 1,-7.207031 1,-8.375 c 0,-1.582031 0.394531,-3.035156 1.1875,-4.359375 0.800781,-1.332031 1.890625,-2.382813 3.265625,-3.15625 1.375,-0.769531 2.878906,-1.15625 4.515625,-1.15625 z m -0.1875,1.53125 c -1.261719,0 -2.4375,0.328125 -3.53125,0.984375 -1.085938,0.648438 -1.949219,1.523438 -2.59375,2.625 -0.636719,1.09375 -0.953125,2.273438 -0.953125,3.53125 0,1.28125 0.320313,2.46875 0.96875,3.5625 C 4.316406,-3.71875 5.1875,-2.847656 6.28125,-2.203125 7.382812,-1.566406 8.578125,-1.25 9.859375,-1.25 c 0.957031,0 1.875,-0.1875 2.75,-0.5625 0.882813,-0.382812 1.644531,-0.894531 2.28125,-1.53125 0.644531,-0.632812 1.15625,-1.390625 1.53125,-2.265625 C 16.804688,-6.484375 17,-7.394531 17,-8.34375 c 0,-0.976562 -0.195312,-1.910156 -0.578125,-2.796875 -0.375,-0.882813 -0.886719,-1.644531 -1.53125,-2.28125 -0.648437,-0.632813 -1.417969,-1.140625 -2.3125,-1.515625 -0.886719,-0.382812 -1.820313,-0.578125 -2.796875,-0.578125 z m 0,0"
             id="path1401" />
        </g>
      </g>
      <g
         style="fill:#282321;fill-opacity:1"
         id="g682">
        <g
           id="use680"
           transform="matrix(0.26458333,0,0,0.26458333,137.49164,235.0105)">
          <path
             style="stroke:none"
             d="m 1.734375,0 c 0,0 0,-5.582031 0,-16.75 0,0 2.832031,0 8.5,0 0,0 0,0.507812 0,1.515625 0,0 -2.277344,0 -6.828125,0 0,0 0,2.023437 0,6.0625 0,0 2.1875,0 6.5625,0 0,0 0,0.507813 0,1.515625 0,0 -2.1875,0 -6.5625,0 0,0 0,2.554688 0,7.65625 0,0 -0.558594,0 -1.671875,0 z m 0,0"
             id="path1397" />
        </g>
      </g>
      <g
         style="fill:#282321;fill-opacity:1"
         id="g686">
        <g
           id="use684"
           transform="matrix(0.26458333,0,0,0.26458333,151.99709,235.0105)">
          <path
             style="stroke:none"
             d="m 1.734375,0 c 0,0 0,-5.582031 0,-16.75 0,0 3.046875,0 9.140625,0 0,0 0,0.507812 0,1.515625 0,0 -2.492188,0 -7.46875,0 0,0 0,2 0,6 0,0 2.410156,0 7.234375,0 0,0 0,0.511719 0,1.53125 0,0 -2.414063,0 -7.234375,0 0,0 0,2.0625 0,6.1875 0,0 2.488281,0 7.46875,0 0,0 0,0.507813 0,1.515625 0,0 -3.046875,0 -9.140625,0 z m 0,0"
             id="path1373" />
        </g>
      </g>
      <g
         style="fill:#282321;fill-opacity:1"
         id="g690">
        <g
           id="use688"
           transform="matrix(0.26458333,0,0,0.26458333,167.65361,235.0105)">
          <path
             style="stroke:none"
             d="m 0.5,-4.6875 c 0,0 0.597656,0 1.796875,0 0.050781,0.53125 0.140625,0.96875 0.265625,1.3125 0.125,0.335938 0.316406,0.652344 0.578125,0.953125 0.300781,0.367187 0.6875,0.652344 1.15625,0.859375 0.46875,0.210938 0.960937,0.3125 1.484375,0.3125 0.957031,0 1.75,-0.3125 2.375,-0.9375 0.625,-0.632812 0.9375,-1.429688 0.9375,-2.390625 0,-1.0625 -0.382812,-1.863281 -1.140625,-2.40625 C 7.421875,-7.347656 6.550781,-7.707031 5.34375,-8.0625 4.375,-8.375 3.691406,-8.625 3.296875,-8.8125 2.910156,-9 2.550781,-9.25 2.21875,-9.5625 c -0.375,-0.34375 -0.667969,-0.78125 -0.875,-1.3125 -0.199219,-0.53125 -0.296875,-1.085938 -0.296875,-1.671875 0,-1.3125 0.4375,-2.390625 1.3125,-3.234375 0.875,-0.84375 1.984375,-1.265625 3.328125,-1.265625 1.375,0 2.492188,0.417969 3.359375,1.25 0.863281,0.835937 1.3125,1.929687 1.34375,3.28125 h -1.75 c -0.0625,-0.90625 -0.367187,-1.628906 -0.90625,-2.171875 -0.542969,-0.550781 -1.242187,-0.828125 -2.09375,-0.828125 -0.835937,0 -1.527344,0.277344 -2.078125,0.828125 -0.542969,0.554688 -0.8125,1.25 -0.8125,2.09375 0,0.386719 0.066406,0.757812 0.203125,1.109375 0.144531,0.34375 0.335937,0.625 0.578125,0.84375 0.226562,0.199219 0.503906,0.367187 0.828125,0.5 0.332031,0.136719 0.882813,0.320313 1.65625,0.546875 0.832031,0.261719 1.46875,0.484375 1.90625,0.671875 0.445313,0.1875 0.851563,0.414063 1.21875,0.671875 0.519531,0.398438 0.925781,0.914062 1.21875,1.546875 0.289063,0.625 0.4375,1.304687 0.4375,2.03125 0,1.429687 -0.480469,2.617187 -1.4375,3.5625 -0.960937,0.9375 -2.167969,1.40625 -3.625,1.40625 -1.511719,0 -2.742187,-0.453125 -3.6875,-1.359375 C 1.097656,-1.976562 0.582031,-3.1875 0.5,-4.6875 Z m 0,0"
             id="path1337" />
        </g>
      </g>
      <g
         style="fill:#282321;fill-opacity:1"
         id="g694">
        <g
           id="use692"
           transform="matrix(0.26458333,0,0,0.26458333,182.44684,235.0105)">
          <path
             style="stroke:none"
             d="m 0.5,-4.6875 c 0,0 0.597656,0 1.796875,0 0.050781,0.53125 0.140625,0.96875 0.265625,1.3125 0.125,0.335938 0.316406,0.652344 0.578125,0.953125 0.300781,0.367187 0.6875,0.652344 1.15625,0.859375 0.46875,0.210938 0.960937,0.3125 1.484375,0.3125 0.957031,0 1.75,-0.3125 2.375,-0.9375 0.625,-0.632812 0.9375,-1.429688 0.9375,-2.390625 0,-1.0625 -0.382812,-1.863281 -1.140625,-2.40625 C 7.421875,-7.347656 6.550781,-7.707031 5.34375,-8.0625 4.375,-8.375 3.691406,-8.625 3.296875,-8.8125 2.910156,-9 2.550781,-9.25 2.21875,-9.5625 c -0.375,-0.34375 -0.667969,-0.78125 -0.875,-1.3125 -0.199219,-0.53125 -0.296875,-1.085938 -0.296875,-1.671875 0,-1.3125 0.4375,-2.390625 1.3125,-3.234375 0.875,-0.84375 1.984375,-1.265625 3.328125,-1.265625 1.375,0 2.492188,0.417969 3.359375,1.25 0.863281,0.835937 1.3125,1.929687 1.34375,3.28125 h -1.75 c -0.0625,-0.90625 -0.367187,-1.628906 -0.90625,-2.171875 -0.542969,-0.550781 -1.242187,-0.828125 -2.09375,-0.828125 -0.835937,0 -1.527344,0.277344 -2.078125,0.828125 -0.542969,0.554688 -0.8125,1.25 -0.8125,2.09375 0,0.386719 0.066406,0.757812 0.203125,1.109375 0.144531,0.34375 0.335937,0.625 0.578125,0.84375 0.226562,0.199219 0.503906,0.367187 0.828125,0.5 0.332031,0.136719 0.882813,0.320313 1.65625,0.546875 0.832031,0.261719 1.46875,0.484375 1.90625,0.671875 0.445313,0.1875 0.851563,0.414063 1.21875,0.671875 0.519531,0.398438 0.925781,0.914062 1.21875,1.546875 0.289063,0.625 0.4375,1.304687 0.4375,2.03125 0,1.429687 -0.480469,2.617187 -1.4375,3.5625 -0.960937,0.9375 -2.167969,1.40625 -3.625,1.40625 -1.511719,0 -2.742187,-0.453125 -3.6875,-1.359375 C 1.097656,-1.976562 0.582031,-3.1875 0.5,-4.6875 Z m 0,0"
             id="path1341" />
        </g>
      </g>
      <g
         style="fill:#282321;fill-opacity:1"
         id="g698">
        <g
           id="use696"
           transform="matrix(0.26458333,0,0,0.26458333,197.24007,235.0105)">
          <path
             style="stroke:none"
             d="m 1.734375,0 c 0,0 0,-5.582031 0,-16.75 0,0 0.554687,0 1.671875,0 0,0 0,5.585938 0,16.75 0,0 -0.558594,0 -1.671875,0 z m 0,0"
             id="path1349" />
        </g>
      </g>
      <g
         style="fill:#282321;fill-opacity:1"
         id="g702">
        <g
           id="use700"
           transform="matrix(0.26458333,0,0,0.26458333,205.86835,235.0105)">
          <path
             style="stroke:none"
             d="m 9.96875,-17.046875 c 1.164062,0 2.285156,0.234375 3.359375,0.703125 1.070313,0.460938 2,1.078125 2.78125,1.859375 0.789063,0.773437 1.421875,1.695313 1.890625,2.765625 0.46875,1.074219 0.703125,2.1875 0.703125,3.34375 0,1.167969 -0.234375,2.289062 -0.703125,3.359375 -0.46875,1.074219 -1.101562,2 -1.890625,2.78125 -0.792969,0.773437 -1.734375,1.386719 -2.828125,1.84375 -1.09375,0.4570312 -2.234375,0.6875 -3.421875,0.6875 -1.1875,0 -2.328125,-0.2304688 -3.421875,-0.6875 C 5.34375,-0.847656 4.394531,-1.46875 3.59375,-2.25 2.800781,-3.03125 2.171875,-3.953125 1.703125,-5.015625 1.234375,-6.085938 1,-7.207031 1,-8.375 c 0,-1.582031 0.394531,-3.035156 1.1875,-4.359375 0.800781,-1.332031 1.890625,-2.382813 3.265625,-3.15625 1.375,-0.769531 2.878906,-1.15625 4.515625,-1.15625 z m -0.1875,1.53125 c -1.261719,0 -2.4375,0.328125 -3.53125,0.984375 -1.085938,0.648438 -1.949219,1.523438 -2.59375,2.625 -0.636719,1.09375 -0.953125,2.273438 -0.953125,3.53125 0,1.28125 0.320313,2.46875 0.96875,3.5625 C 4.316406,-3.71875 5.1875,-2.847656 6.28125,-2.203125 7.382812,-1.566406 8.578125,-1.25 9.859375,-1.25 c 0.957031,0 1.875,-0.1875 2.75,-0.5625 0.882813,-0.382812 1.644531,-0.894531 2.28125,-1.53125 0.644531,-0.632812 1.15625,-1.390625 1.53125,-2.265625 C 16.804688,-6.484375 17,-7.394531 17,-8.34375 c 0,-0.976562 -0.195312,-1.910156 -0.578125,-2.796875 -0.375,-0.882813 -0.886719,-1.644531 -1.53125,-2.28125 -0.648437,-0.632813 -1.417969,-1.140625 -2.3125,-1.515625 -0.886719,-0.382812 -1.820313,-0.578125 -2.796875,-0.578125 z m 0,0"
             id="path1405" />
        </g>
      </g>
      <g
         style="fill:#282321;fill-opacity:1"
         id="g706">
        <g
           id="use704"
           transform="matrix(0.26458333,0,0,0.26458333,229.07332,235.0105)">
          <path
             style="stroke:none"
             d="m 1.734375,0 c 0,0 0,-5.582031 0,-16.75 0,0 0.75,0 2.25,0 0,0 3.128906,4.632812 9.390625,13.890625 0,0 0,-4.628906 0,-13.890625 0,0 0.5625,0 1.6875,0 0,0 0,5.585938 0,16.75 0,0 -0.5625,0 -1.6875,0 0,0 -3.324219,-4.910156 -9.96875,-14.734375 0,0 0,4.914063 0,14.734375 0,0 -0.558594,0 -1.671875,0 z m 0,0"
             id="path1381" />
        </g>
      </g>
      <g
         style="fill:#282321;fill-opacity:1"
         id="g710">
        <g
           id="use708"
           transform="matrix(0.26458333,0,0,0.26458333,249.35632,235.0105)">
          <path
             style="stroke:none"
             d="m 0.25,0 c 0,0 2.394531,-5.582031 7.1875,-16.75 0,0 0.628906,0 1.890625,0 0,0 2.398437,5.585938 7.203125,16.75 0,0 -0.617188,0 -1.84375,0 0,0 -0.808594,-1.878906 -2.421875,-5.640625 0,0 -2.601563,0 -7.796875,0 0,0 -0.820312,1.882813 -2.453125,5.640625 0,0 -0.589844,0 -1.765625,0 z m 4.859375,-7.15625 c 0,0 2.164063,0 6.5,0 0,0 -1.074219,-2.5625 -3.21875,-7.6875 0,0 -1.09375,2.5625 -3.28125,7.6875 z m 0,0"
             id="path1393" />
        </g>
      </g>
      <g
         style="fill:#282321;fill-opacity:1"
         id="g714">
        <g
           id="use712"
           transform="matrix(0.26458333,0,0,0.26458333,269.63931,235.0105)">
          <path
             style="stroke:none"
             d="m 1.734375,0 c 0,0 0,-5.582031 0,-16.75 0,0 0.554687,0 1.671875,0 0,0 0,5.078125 0,15.234375 0,0 2.3125,0 6.9375,0 0,0 0,0.507813 0,1.515625 0,0 -2.871094,0 -8.609375,0 z m 0,0"
             id="path1413" />
        </g>
      </g>
      <g
         style="fill:#282321;fill-opacity:1"
         id="g718">
        <g
           id="use716"
           transform="matrix(0.26458333,0,0,0.26458333,283.62457,235.0105)">
          <path
             style="stroke:none"
             d="m 0.5,-4.6875 c 0,0 0.597656,0 1.796875,0 0.050781,0.53125 0.140625,0.96875 0.265625,1.3125 0.125,0.335938 0.316406,0.652344 0.578125,0.953125 0.300781,0.367187 0.6875,0.652344 1.15625,0.859375 0.46875,0.210938 0.960937,0.3125 1.484375,0.3125 0.957031,0 1.75,-0.3125 2.375,-0.9375 0.625,-0.632812 0.9375,-1.429688 0.9375,-2.390625 0,-1.0625 -0.382812,-1.863281 -1.140625,-2.40625 C 7.421875,-7.347656 6.550781,-7.707031 5.34375,-8.0625 4.375,-8.375 3.691406,-8.625 3.296875,-8.8125 2.910156,-9 2.550781,-9.25 2.21875,-9.5625 c -0.375,-0.34375 -0.667969,-0.78125 -0.875,-1.3125 -0.199219,-0.53125 -0.296875,-1.085938 -0.296875,-1.671875 0,-1.3125 0.4375,-2.390625 1.3125,-3.234375 0.875,-0.84375 1.984375,-1.265625 3.328125,-1.265625 1.375,0 2.492188,0.417969 3.359375,1.25 0.863281,0.835937 1.3125,1.929687 1.34375,3.28125 h -1.75 c -0.0625,-0.90625 -0.367187,-1.628906 -0.90625,-2.171875 -0.542969,-0.550781 -1.242187,-0.828125 -2.09375,-0.828125 -0.835937,0 -1.527344,0.277344 -2.078125,0.828125 -0.542969,0.554688 -0.8125,1.25 -0.8125,2.09375 0,0.386719 0.066406,0.757812 0.203125,1.109375 0.144531,0.34375 0.335937,0.625 0.578125,0.84375 0.226562,0.199219 0.503906,0.367187 0.828125,0.5 0.332031,0.136719 0.882813,0.320313 1.65625,0.546875 0.832031,0.261719 1.46875,0.484375 1.90625,0.671875 0.445313,0.1875 0.851563,0.414063 1.21875,0.671875 0.519531,0.398438 0.925781,0.914062 1.21875,1.546875 0.289063,0.625 0.4375,1.304687 0.4375,2.03125 0,1.429687 -0.480469,2.617187 -1.4375,3.5625 -0.960937,0.9375 -2.167969,1.40625 -3.625,1.40625 -1.511719,0 -2.742187,-0.453125 -3.6875,-1.359375 C 1.097656,-1.976562 0.582031,-3.1875 0.5,-4.6875 Z m 0,0"
             id="path1345" />
        </g>
      </g>
      <g
         style="fill:#282321;fill-opacity:1"
         id="g722">
        <g
           id="use720"
           transform="matrix(0.26458333,0,0,0.26458333,99.865517,257.9136)">
          <path
             style="stroke:none"
             d="m 0.6875,0 c 0,0 0,-2.234375 0,-6.703125 0,0 0.222656,0 0.671875,0 0,0 0,0.980469 0,2.9375 0,0 1.160156,0 3.484375,0 0,0 0,-0.976563 0,-2.9375 0,0 0.222656,0 0.671875,0 0,0 0,2.234375 0,6.703125 0,0 -0.226563,0 -0.671875,0 0,0 0,-1.050781 0,-3.15625 0,0 -1.164062,0 -3.484375,0 0,0 0,1.054688 0,3.15625 0,0 -0.226563,0 -0.671875,0 z m 0,0"
             id="path1329" />
        </g>
      </g>
      <g
         style="fill:#282321;fill-opacity:1"
         id="g726">
        <g
           id="use724"
           transform="matrix(0.26458333,0,0,0.26458333,108.70581,257.9136)">
          <path
             style="stroke:none"
             d="m 4,-6.828125 c 0.457031,0 0.898438,0.09375 1.328125,0.28125 0.4375,0.1875 0.8125,0.4375 1.125,0.75 0.3125,0.304687 0.5625,0.671875 0.75,1.109375 0.1875,0.429688 0.28125,0.875 0.28125,1.34375 0,0.460938 -0.09375,0.90625 -0.28125,1.34375 C 7.015625,-1.570312 6.757812,-1.203125 6.4375,-0.890625 6.125,-0.585938 5.75,-0.34375 5.3125,-0.15625 4.875,0.03125 4.414062,0.125 3.9375,0.125 3.46875,0.125 3.015625,0.03125 2.578125,-0.15625 2.140625,-0.34375 1.757812,-0.59375 1.4375,-0.90625 1.125,-1.21875 0.875,-1.585938 0.6875,-2.015625 0.5,-2.441406 0.40625,-2.882812 0.40625,-3.34375 c 0,-0.632812 0.15625,-1.21875 0.46875,-1.75 0.320312,-0.539062 0.757812,-0.960938 1.3125,-1.265625 0.550781,-0.3125 1.15625,-0.46875 1.8125,-0.46875 z m -0.09375,0.625 c -0.5,0 -0.96875,0.132813 -1.40625,0.390625 -0.429688,0.25 -0.773438,0.601562 -1.03125,1.046875 -0.261719,0.4375 -0.390625,0.914063 -0.390625,1.421875 0,0.511719 0.128906,0.984375 0.390625,1.421875 0.257812,0.4375 0.609375,0.789063 1.046875,1.046875 0.4375,0.25 0.914063,0.375 1.4375,0.375 0.382813,0 0.75,-0.070312 1.09375,-0.21875 C 5.398438,-0.875 5.707031,-1.078125 5.96875,-1.328125 6.226562,-1.585938 6.429688,-1.890625 6.578125,-2.234375 6.734375,-2.585938 6.8125,-2.957031 6.8125,-3.34375 6.8125,-3.726562 6.734375,-4.097656 6.578125,-4.453125 6.429688,-4.804688 6.226562,-5.113281 5.96875,-5.375 5.707031,-5.632812 5.394531,-5.835938 5.03125,-5.984375 4.675781,-6.128906 4.300781,-6.203125 3.90625,-6.203125 Z m 0,0"
             id="path1313" />
        </g>
      </g>
      <g
         style="fill:#282321;fill-opacity:1"
         id="g730">
        <g
           id="use728"
           transform="matrix(0.26458333,0,0,0.26458333,119.23354,257.9136)">
          <path
             style="stroke:none"
             d="m 0.6875,0 c 0,0 0,-2.234375 0,-6.703125 0,0 0.347656,0 1.046875,0 0,0 0.8125,1.902344 2.4375,5.703125 0,0 0.8125,-1.898438 2.4375,-5.703125 0,0 0.347656,0 1.046875,0 0,0 0,2.234375 0,6.703125 0,0 -0.226562,0 -0.671875,0 0,0 0,-1.988281 0,-5.96875 0,0 -0.84375,1.992188 -2.53125,5.96875 0,0 -0.195313,0 -0.578125,0 0,0 -0.839844,-1.988281 -2.515625,-5.96875 0,0 0,1.992188 0,5.96875 0,0 -0.226563,0 -0.671875,0 z m 0,0"
             id="path1241" />
        </g>
      </g>
      <g
         style="fill:#282321;fill-opacity:1"
         id="g734">
        <g
           id="use732"
           transform="matrix(0.26458333,0,0,0.26458333,130.21745,257.9136)">
          <path
             style="stroke:none"
             d="m 0.6875,0 c 0,0 0,-2.234375 0,-6.703125 0,0 1.222656,0 3.671875,0 0,0 0,0.203125 0,0.609375 0,0 -1,0 -3,0 0,0 0,0.796875 0,2.390625 0,0 0.96875,0 2.90625,0 0,0 0,0.210937 0,0.625 0,0 -0.96875,0 -2.90625,0 0,0 0,0.824219 0,2.46875 0,0 1,0 3,0 0,0 0,0.203125 0,0.609375 0,0 -1.226563,0 -3.671875,0 z m 0,0"
             id="path1301" />
        </g>
      </g>
      <g
         style="fill:#282321;fill-opacity:1"
         id="g738">
        <g
           id="use736"
           transform="matrix(0.26458333,0,0,0.26458333,137.72462,257.9136)">
          <path
             style="stroke:none"
             d=""
             id="path1293" />
        </g>
      </g>
      <g
         style="fill:#282321;fill-opacity:1"
         id="g742">
        <g
           id="use740"
           transform="matrix(0.26458333,0,0,0.26458333,142.88445,257.9136)">
          <path
             style="stroke:none"
             d="m 0.6875,0 c 0,0 0,-2.234375 0,-6.703125 0,0 0.222656,0 0.671875,0 0,0 0,2.234375 0,6.703125 0,0 -0.226563,0 -0.671875,0 z m 0,0"
             id="path1281" />
        </g>
      </g>
      <g
         style="fill:#282321;fill-opacity:1"
         id="g746">
        <g
           id="use744"
           transform="matrix(0.26458333,0,0,0.26458333,147.57922,257.9136)">
          <path
             style="stroke:none"
             d="m 3.265625,-2.5 c 0,0 0.625,0.835938 1.875,2.5 0,0 -0.28125,0 -0.84375,0 0,0 -0.75,-1.015625 -2.25,-3.046875 0.71875,0 1.234375,-0.039063 1.546875,-0.125 C 4.238281,-3.359375 4.5625,-3.820312 4.5625,-4.5625 4.5625,-4.875 4.5,-5.140625 4.375,-5.359375 4.25,-5.578125 4.070312,-5.742188 3.84375,-5.859375 3.5,-6.015625 2.988281,-6.09375 2.3125,-6.09375 H 1.359375 c 0,0 0,2.03125 0,6.09375 0,0 -0.226563,0 -0.671875,0 0,0 0,-2.234375 0,-6.703125 0,0 0.550781,0 1.65625,0 0.875,0 1.519531,0.117187 1.9375,0.34375 0.3125,0.179687 0.546875,0.421875 0.703125,0.734375 0.164063,0.304688 0.25,0.65625 0.25,1.0625 0,0.605469 -0.171875,1.085938 -0.515625,1.4375 -0.335938,0.34375 -0.820312,0.554688 -1.453125,0.625 z m 0,0"
             id="path1269" />
        </g>
      </g>
      <g
         style="fill:#282321;fill-opacity:1"
         id="g750">
        <g
           id="use748"
           transform="matrix(0.26458333,0,0,0.26458333,155.73302,257.9136)">
          <path
             style="stroke:none"
             d="m 3.265625,-2.5 c 0,0 0.625,0.835938 1.875,2.5 0,0 -0.28125,0 -0.84375,0 0,0 -0.75,-1.015625 -2.25,-3.046875 0.71875,0 1.234375,-0.039063 1.546875,-0.125 C 4.238281,-3.359375 4.5625,-3.820312 4.5625,-4.5625 4.5625,-4.875 4.5,-5.140625 4.375,-5.359375 4.25,-5.578125 4.070312,-5.742188 3.84375,-5.859375 3.5,-6.015625 2.988281,-6.09375 2.3125,-6.09375 H 1.359375 c 0,0 0,2.03125 0,6.09375 0,0 -0.226563,0 -0.671875,0 0,0 0,-2.234375 0,-6.703125 0,0 0.550781,0 1.65625,0 0.875,0 1.519531,0.117187 1.9375,0.34375 0.3125,0.179687 0.546875,0.421875 0.703125,0.734375 0.164063,0.304688 0.25,0.65625 0.25,1.0625 0,0.605469 -0.171875,1.085938 -0.515625,1.4375 -0.335938,0.34375 -0.820312,0.554688 -1.453125,0.625 z m 0,0"
             id="path1273" />
        </g>
      </g>
      <g
         style="fill:#282321;fill-opacity:1"
         id="g754">
        <g
           id="use752"
           transform="matrix(0.26458333,0,0,0.26458333,163.88683,257.9136)">
          <path
             style="stroke:none"
             d="m 0.6875,0 c 0,0 0,-2.234375 0,-6.703125 0,0 0.222656,0 0.671875,0 0,0 0,2.234375 0,6.703125 0,0 -0.226563,0 -0.671875,0 z m 0,0"
             id="path1285" />
        </g>
      </g>
      <g
         style="fill:#282321;fill-opacity:1"
         id="g758">
        <g
           id="use756"
           transform="matrix(0.26458333,0,0,0.26458333,168.5816,257.9136)">
          <path
             style="stroke:none"
             d="m 2.984375,-3.09375 c 0,0 1.519531,0 4.5625,0 -0.042969,0.804688 -0.355469,1.511719 -0.9375,2.125 C 5.953125,-0.238281 5.097656,0.125 4.046875,0.125 3.535156,0.125 3.054688,0.0351562 2.609375,-0.140625 2.160156,-0.328125 1.773438,-0.570312 1.453125,-0.875 1.128906,-1.1875 0.875,-1.554688 0.6875,-1.984375 0.5,-2.421875 0.40625,-2.882812 0.40625,-3.375 c 0,-0.476562 0.085938,-0.929688 0.265625,-1.359375 0.1875,-0.425781 0.4375,-0.789063 0.75,-1.09375 C 1.742188,-6.140625 2.125,-6.382812 2.5625,-6.5625 3,-6.738281 3.460938,-6.828125 3.953125,-6.828125 c 0.738281,0 1.394531,0.179687 1.96875,0.53125 0.582031,0.34375 0.988281,0.804687 1.21875,1.375 h -0.75 c -0.242187,-0.40625 -0.570313,-0.71875 -0.984375,-0.9375 -0.417969,-0.226563 -0.882812,-0.34375 -1.390625,-0.34375 -0.554687,0 -1.054687,0.125 -1.5,0.375 -0.449219,0.242187 -0.804687,0.578125 -1.0625,1.015625 -0.25,0.4375 -0.375,0.929688 -0.375,1.46875 0,0.386719 0.078125,0.757812 0.234375,1.109375 0.15625,0.355469 0.363281,0.664063 0.625,0.921875 0.257812,0.25 0.566406,0.449219 0.921875,0.59375 0.363281,0.148438 0.75,0.21875 1.15625,0.21875 0.820313,0 1.503906,-0.273438 2.046875,-0.828125 0.351562,-0.375 0.578125,-0.757813 0.671875,-1.15625 h -3.75 z m 0,0"
             id="path1257" />
        </g>
      </g>
      <g
         style="fill:#282321;fill-opacity:1"
         id="g762">
        <g
           id="use760"
           transform="matrix(0.26458333,0,0,0.26458333,179.13591,257.9136)">
          <path
             style="stroke:none"
             d="m 0.109375,0 c 0,0 0.957031,-2.234375 2.875,-6.703125 0,0 0.25,0 0.75,0 0,0 0.960937,2.234375 2.890625,6.703125 0,0 -0.25,0 -0.75,0 0,0 -0.324219,-0.753906 -0.96875,-2.265625 0,0 -1.042969,0 -3.125,0 0,0 -0.324219,0.757813 -0.96875,2.265625 0,0 -0.234375,0 -0.703125,0 z m 1.9375,-2.875 c 0,0 0.867187,0 2.609375,0 0,0 -0.433594,-1.019531 -1.296875,-3.0625 0,0 -0.4375,1.023438 -1.3125,3.0625 z m 0,0"
             id="path1245" />
        </g>
      </g>
      <g
         style="fill:#282321;fill-opacity:1"
         id="g766">
        <g
           id="use764"
           transform="matrix(0.26458333,0,0,0.26458333,188.49438,257.9136)">
          <path
             style="stroke:none"
             d="m 1.59375,0 c 0,0 0,-2.03125 0,-6.09375 0,0 -0.511719,0 -1.53125,0 0,0 0,-0.203125 0,-0.609375 0,0 1.242188,0 3.734375,0 0,0 0,0.203125 0,0.609375 0,0 -0.511719,0 -1.53125,0 0,0 0,2.03125 0,6.09375 0,0 -0.226563,0 -0.671875,0 z m 0,0"
             id="path1261" />
        </g>
      </g>
      <g
         style="fill:#282321;fill-opacity:1"
         id="g770">
        <g
           id="use768"
           transform="matrix(0.26458333,0,0,0.26458333,195.00504,257.9136)">
          <path
             style="stroke:none"
             d="m 0.6875,0 c 0,0 0,-2.234375 0,-6.703125 0,0 0.222656,0 0.671875,0 0,0 0,2.234375 0,6.703125 0,0 -0.226563,0 -0.671875,0 z m 0,0"
             id="path1289" />
        </g>
      </g>
      <g
         style="fill:#282321;fill-opacity:1"
         id="g774">
        <g
           id="use772"
           transform="matrix(0.26458333,0,0,0.26458333,199.69981,257.9136)">
          <path
             style="stroke:none"
             d="m 4,-6.828125 c 0.457031,0 0.898438,0.09375 1.328125,0.28125 0.4375,0.1875 0.8125,0.4375 1.125,0.75 0.3125,0.304687 0.5625,0.671875 0.75,1.109375 0.1875,0.429688 0.28125,0.875 0.28125,1.34375 0,0.460938 -0.09375,0.90625 -0.28125,1.34375 C 7.015625,-1.570312 6.757812,-1.203125 6.4375,-0.890625 6.125,-0.585938 5.75,-0.34375 5.3125,-0.15625 4.875,0.03125 4.414062,0.125 3.9375,0.125 3.46875,0.125 3.015625,0.03125 2.578125,-0.15625 2.140625,-0.34375 1.757812,-0.59375 1.4375,-0.90625 1.125,-1.21875 0.875,-1.585938 0.6875,-2.015625 0.5,-2.441406 0.40625,-2.882812 0.40625,-3.34375 c 0,-0.632812 0.15625,-1.21875 0.46875,-1.75 0.320312,-0.539062 0.757812,-0.960938 1.3125,-1.265625 0.550781,-0.3125 1.15625,-0.46875 1.8125,-0.46875 z m -0.09375,0.625 c -0.5,0 -0.96875,0.132813 -1.40625,0.390625 -0.429688,0.25 -0.773438,0.601562 -1.03125,1.046875 -0.261719,0.4375 -0.390625,0.914063 -0.390625,1.421875 0,0.511719 0.128906,0.984375 0.390625,1.421875 0.257812,0.4375 0.609375,0.789063 1.046875,1.046875 0.4375,0.25 0.914063,0.375 1.4375,0.375 0.382813,0 0.75,-0.070312 1.09375,-0.21875 C 5.398438,-0.875 5.707031,-1.078125 5.96875,-1.328125 6.226562,-1.585938 6.429688,-1.890625 6.578125,-2.234375 6.734375,-2.585938 6.8125,-2.957031 6.8125,-3.34375 6.8125,-3.726562 6.734375,-4.097656 6.578125,-4.453125 6.429688,-4.804688 6.226562,-5.113281 5.96875,-5.375 5.707031,-5.632812 5.394531,-5.835938 5.03125,-5.984375 4.675781,-6.128906 4.300781,-6.203125 3.90625,-6.203125 Z m 0,0"
             id="path1317" />
        </g>
      </g>
      <g
         style="fill:#282321;fill-opacity:1"
         id="g778">
        <g
           id="use776"
           transform="matrix(0.26458333,0,0,0.26458333,210.22755,257.9136)">
          <path
             style="stroke:none"
             d="m 0.6875,0 c 0,0 0,-2.234375 0,-6.703125 0,0 0.300781,0 0.90625,0 0,0 1.253906,1.855469 3.765625,5.5625 0,0 0,-1.851563 0,-5.5625 0,0 0.222656,0 0.671875,0 0,0 0,2.234375 0,6.703125 0,0 -0.226562,0 -0.671875,0 0,0 -1.335937,-1.96875 -4,-5.90625 0,0 0,1.96875 0,5.90625 0,0 -0.226563,0 -0.671875,0 z m 0,0"
             id="path1325" />
        </g>
      </g>
      <g
         style="fill:#282321;fill-opacity:1"
         id="g782">
        <g
           id="use780"
           transform="matrix(0.26458333,0,0,0.26458333,219.58603,257.9136)">
          <path
             style="stroke:none"
             d=""
             id="path1297" />
        </g>
      </g>
      <g
         style="fill:#282321;fill-opacity:1"
         id="g786">
        <g
           id="use784"
           transform="matrix(0.26458333,0,0,0.26458333,224.74585,257.9136)">
          <path
             style="stroke:none"
             d="m 0.6875,0 c 0,0 0,-2.234375 0,-6.703125 0,0 1.222656,0 3.671875,0 0,0 0,0.203125 0,0.609375 0,0 -1,0 -3,0 0,0 0,0.796875 0,2.390625 0,0 0.96875,0 2.90625,0 0,0 0,0.210937 0,0.625 0,0 -0.96875,0 -2.90625,0 0,0 0,0.824219 0,2.46875 0,0 1,0 3,0 0,0 0,0.203125 0,0.609375 0,0 -1.226563,0 -3.671875,0 z m 0,0"
             id="path1305" />
        </g>
      </g>
      <g
         style="fill:#282321;fill-opacity:1"
         id="g790">
        <g
           id="use788"
           transform="matrix(0.26458333,0,0,0.26458333,232.25302,257.9136)">
          <path
             style="stroke:none"
             d="m 0.078125,0 c 0,0 0.753906,-1.144531 2.265625,-3.4375 0,0 -0.714844,-1.085938 -2.140625,-3.265625 0,0 0.257813,0 0.78125,0 0,0 0.59375,0.898437 1.78125,2.6875 0,0 0.59375,-0.894531 1.78125,-2.6875 0,0 0.253906,0 0.765625,0 0,0 -0.714844,1.089844 -2.140625,3.265625 0,0 0.757813,1.148438 2.28125,3.4375 0,0 -0.261719,0 -0.78125,0 0,0 -0.636719,-0.957031 -1.90625,-2.875 0,0 -0.636719,0.960938 -1.90625,2.875 0,0 -0.261719,0 -0.78125,0 z m 0,0"
             id="path1249" />
        </g>
      </g>
      <g
         style="fill:#282321;fill-opacity:1"
         id="g794">
        <g
           id="use792"
           transform="matrix(0.26458333,0,0,0.26458333,240.42455,257.9136)">
          <path
             style="stroke:none"
             d="m 0.6875,0 c 0,0 0,-2.234375 0,-6.703125 0,0 0.617188,0 1.859375,0 0.425781,0 0.773437,0.027344 1.046875,0.078125 0.28125,0.054688 0.523438,0.140625 0.734375,0.265625 0.257813,0.15625 0.457031,0.382813 0.59375,0.671875 0.132813,0.292969 0.203125,0.632812 0.203125,1.015625 0,0.335937 -0.058594,0.636719 -0.171875,0.90625 -0.117187,0.261719 -0.28125,0.46875 -0.5,0.625 C 4.253906,-2.984375 4.015625,-2.875 3.734375,-2.8125 3.460938,-2.75 3.101562,-2.71875 2.65625,-2.71875 H 1.359375 V 0 Z m 0.671875,-3.328125 h 1.25 c 0.601563,0 1.03125,-0.070313 1.28125,-0.21875 0.175781,-0.09375 0.3125,-0.238281 0.40625,-0.4375 C 4.398438,-4.179688 4.453125,-4.414062 4.453125,-4.6875 4.453125,-5.007812 4.382812,-5.28125 4.25,-5.5 4.125,-5.726562 3.941406,-5.878906 3.703125,-5.953125 3.410156,-6.046875 2.945312,-6.09375 2.3125,-6.09375 H 1.359375 Z m 0,0"
             id="path1321" />
        </g>
      </g>
      <g
         style="fill:#282321;fill-opacity:1"
         id="g798">
        <g
           id="use796"
           transform="matrix(0.26458333,0,0,0.26458333,248.44104,257.9136)">
          <path
             style="stroke:none"
             d="m 0.6875,0 c 0,0 0,-2.234375 0,-6.703125 0,0 1.222656,0 3.671875,0 0,0 0,0.203125 0,0.609375 0,0 -1,0 -3,0 0,0 0,0.796875 0,2.390625 0,0 0.96875,0 2.90625,0 0,0 0,0.210937 0,0.625 0,0 -0.96875,0 -2.90625,0 0,0 0,0.824219 0,2.46875 0,0 1,0 3,0 0,0 0,0.203125 0,0.609375 0,0 -1.226563,0 -3.671875,0 z m 0,0"
             id="path1309" />
        </g>
      </g>
      <g
         style="fill:#282321;fill-opacity:1"
         id="g802">
        <g
           id="use800"
           transform="matrix(0.26458333,0,0,0.26458333,255.94821,257.9136)">
          <path
             style="stroke:none"
             d="m 3.265625,-2.5 c 0,0 0.625,0.835938 1.875,2.5 0,0 -0.28125,0 -0.84375,0 0,0 -0.75,-1.015625 -2.25,-3.046875 0.71875,0 1.234375,-0.039063 1.546875,-0.125 C 4.238281,-3.359375 4.5625,-3.820312 4.5625,-4.5625 4.5625,-4.875 4.5,-5.140625 4.375,-5.359375 4.25,-5.578125 4.070312,-5.742188 3.84375,-5.859375 3.5,-6.015625 2.988281,-6.09375 2.3125,-6.09375 H 1.359375 c 0,0 0,2.03125 0,6.09375 0,0 -0.226563,0 -0.671875,0 0,0 0,-2.234375 0,-6.703125 0,0 0.550781,0 1.65625,0 0.875,0 1.519531,0.117187 1.9375,0.34375 0.3125,0.179687 0.546875,0.421875 0.703125,0.734375 0.164063,0.304688 0.25,0.65625 0.25,1.0625 0,0.605469 -0.171875,1.085938 -0.515625,1.4375 -0.335938,0.34375 -0.820312,0.554688 -1.453125,0.625 z m 0,0"
             id="path1277" />
        </g>
      </g>
      <g
         style="fill:#282321;fill-opacity:1"
         id="g806">
        <g
           id="use804"
           transform="matrix(0.26458333,0,0,0.26458333,264.10202,257.9136)">
          <path
             style="stroke:none"
             d="m 1.59375,0 c 0,0 0,-2.03125 0,-6.09375 0,0 -0.511719,0 -1.53125,0 0,0 0,-0.203125 0,-0.609375 0,0 1.242188,0 3.734375,0 0,0 0,0.203125 0,0.609375 0,0 -0.511719,0 -1.53125,0 0,0 0,2.03125 0,6.09375 0,0 -0.226563,0 -0.671875,0 z m 0,0"
             id="path1265" />
        </g>
      </g>
      <g
         style="fill:#282321;fill-opacity:1"
         id="g810">
        <g
           id="use808"
           transform="matrix(0.26458333,0,0,0.26458333,270.61267,257.9136)">
          <path
             style="stroke:none"
             d="m 0.203125,-1.875 c 0,0 0.238281,0 0.71875,0 0.019531,0.210938 0.054687,0.386719 0.109375,0.53125 0.050781,0.136719 0.125,0.261719 0.21875,0.375 0.125,0.148438 0.28125,0.261719 0.46875,0.34375 0.1875,0.085938 0.382812,0.125 0.59375,0.125 0.382812,0 0.703125,-0.125 0.953125,-0.375 0.25,-0.25 0.375,-0.566406 0.375,-0.953125 0,-0.425781 -0.152344,-0.75 -0.453125,-0.96875 -0.21875,-0.144531 -0.570312,-0.289063 -1.046875,-0.4375 -0.386719,-0.113281 -0.65625,-0.207031 -0.8125,-0.28125 -0.15625,-0.082031 -0.304687,-0.1875 -0.4375,-0.3125 -0.148437,-0.132813 -0.261719,-0.304687 -0.34375,-0.515625 -0.085937,-0.21875 -0.125,-0.441406 -0.125,-0.671875 0,-0.53125 0.171875,-0.960937 0.515625,-1.296875 0.351562,-0.34375 0.800781,-0.515625 1.34375,-0.515625 0.550781,0 1,0.167969 1.34375,0.5 0.34375,0.335937 0.519531,0.773437 0.53125,1.3125 H 3.453125 C 3.429688,-5.367188 3.3125,-5.65625 3.09375,-5.875 2.875,-6.09375 2.597656,-6.203125 2.265625,-6.203125 c -0.34375,0 -0.625,0.109375 -0.84375,0.328125 -0.21875,0.21875 -0.328125,0.496094 -0.328125,0.828125 0,0.15625 0.023438,0.308594 0.078125,0.453125 0.0625,0.136719 0.140625,0.246094 0.234375,0.328125 0.09375,0.085937 0.207031,0.15625 0.34375,0.21875 0.132812,0.054687 0.351562,0.121094 0.65625,0.203125 0.332031,0.105469 0.585938,0.199219 0.765625,0.28125 0.175781,0.074219 0.335937,0.164062 0.484375,0.265625 0.207031,0.15625 0.367188,0.359375 0.484375,0.609375 0.125,0.25 0.1875,0.523438 0.1875,0.8125 0,0.574219 -0.195313,1.054688 -0.578125,1.4375 C 3.363281,-0.0625 2.878906,0.125 2.296875,0.125 1.691406,0.125 1.195312,-0.0546875 0.8125,-0.421875 0.4375,-0.785156 0.234375,-1.269531 0.203125,-1.875 Z m 0,0"
             id="path1253" />
        </g>
      </g>
      <g
         clip-path="url(#clip1)"
         clip-rule="nonzero"
         id="g814">
        <path
           style="fill:#282321;fill-opacity:1;fill-rule:nonzero;stroke:none"
           d="m 187.40234,117.39062 c -11.33203,0 -20.55468,9.24219 -20.55468,20.60157 0,11.36328 9.22265,20.60547 20.55468,20.60547 11.32813,0 20.55079,-9.24219 20.55079,-20.60547 0,-11.35938 -9.22266,-20.60157 -20.55079,-20.60157 z m 0,42.75391 c -12.18359,0 -22.09375,-9.9375 -22.09375,-22.15234 0,-12.21094 9.91016,-22.14844 22.09375,-22.14844 12.17969,0 22.08985,9.9375 22.08985,22.14844 0,12.21484 -9.91016,22.15234 -22.08985,22.15234"
           id="path812" />
      </g>
      <g
         clip-path="url(#clip2)"
         clip-rule="nonzero"
         id="g818">
        <path
           style="fill:#282321;fill-opacity:1;fill-rule:nonzero;stroke:none"
           d="m 187.40234,166.84375 c -0.42578,0 -0.77343,-0.34766 -0.77343,-0.77344 v -49.45312 c 0,-0.42969 0.34765,-0.77344 0.77343,-0.77344 0.42579,0 0.76954,0.34375 0.76954,0.77344 v 49.45312 c 0,0.42578 -0.34375,0.77344 -0.76954,0.77344"
           id="path816" />
      </g>
      <path
         style="fill:#282321;fill-opacity:1;fill-rule:nonzero;stroke:none"
         d="m 187.40234,135.15625 c -0.19921,0 -0.39453,-0.0781 -0.54687,-0.22656 -0.30078,-0.30469 -0.30078,-0.79297 0,-1.09375 l 13.19922,-13.23438 c 0.30078,-0.30078 0.78906,-0.30078 1.08984,0 0.30078,0.30078 0.30078,0.79297 0,1.09375 l -13.19922,13.23438 c -0.14843,0.14844 -0.34765,0.22656 -0.54297,0.22656"
         id="path820" />
      <g
         clip-path="url(#clip3)"
         clip-rule="nonzero"
         id="g824">
        <path
           style="fill:#282321;fill-opacity:1;fill-rule:nonzero;stroke:none"
           d="m 187.39844,155.26563 c -0.19531,0 -0.39063,-0.0742 -0.54297,-0.22657 -0.30078,-0.30078 -0.30078,-0.78906 0,-1.09375 l 20.86328,-20.91797 c 0.30078,-0.30078 0.78906,-0.30078 1.08984,0 0.30079,0.30469 0.30079,0.79297 0,1.09375 l -20.86328,20.91797 c -0.15234,0.15235 -0.34765,0.22657 -0.54687,0.22657"
           id="path822" />
      </g>
      <path
         style="fill:#282321;fill-opacity:1;fill-rule:nonzero;stroke:none"
         d="m 187.40234,135.15625 c -0.19921,0 -0.39453,-0.0781 -0.54687,-0.22656 l -13.19922,-13.23438 c -0.30078,-0.30078 -0.30078,-0.79297 0,-1.09375 0.30078,-0.30078 0.78906,-0.30078 1.08984,0 l 13.19922,13.23438 c 0.30078,0.30078 0.30078,0.78906 0,1.09375 -0.14843,0.14844 -0.34765,0.22656 -0.54297,0.22656"
         id="path826" />
      <g
         clip-path="url(#clip4)"
         clip-rule="nonzero"
         id="g830">
        <path
           style="fill:#282321;fill-opacity:1;fill-rule:nonzero;stroke:none"
           d="m 187.40234,155.26563 c -0.19921,0 -0.39453,-0.0742 -0.54687,-0.22657 l -20.86328,-20.91797 c -0.30078,-0.30078 -0.30078,-0.78906 0,-1.09375 0.30078,-0.30078 0.78906,-0.30078 1.08984,0 l 20.86328,20.91797 c 0.30078,0.30469 0.30078,0.79297 0,1.09375 -0.14843,0.15235 -0.34765,0.22657 -0.54297,0.22657"
           id="path828" />
      </g>
    </g>
  </g>
</svg>
